let midiTracks = []

midiTracks[0] = [
  {
    "startTime": 0,
    "noteNumber": 72,
    "velocity": 127,
    "endTime": 24
  },
  {
    "startTime": 24,
    "noteNumber": 74,
    "velocity": 127,
    "endTime": 48
  },
  {
    "startTime": 48,
    "noteNumber": 75,
    "velocity": 127,
    "endTime": 72
  },
  {
    "startTime": 72,
    "noteNumber": 77,
    "velocity": 127,
    "endTime": 96
  },
  {
    "startTime": 96,
    "noteNumber": 79,
    "velocity": 127,
    "endTime": 120
  },
  {
    "startTime": 144,
    "noteNumber": 72,
    "velocity": 127,
    "endTime": 168
  },
  {
    "startTime": 192,
    "noteNumber": 72,
    "velocity": 127,
    "endTime": 204
  },
  {
    "startTime": 204,
    "noteNumber": 74,
    "velocity": 127,
    "endTime": 216
  },
  {
    "startTime": 216,
    "noteNumber": 72,
    "velocity": 127,
    "endTime": 240
  },
  {
    "startTime": 240,
    "noteNumber": 74,
    "velocity": 127,
    "endTime": 264
  },
  {
    "startTime": 264,
    "noteNumber": 75,
    "velocity": 127,
    "endTime": 288
  },
  {
    "startTime": 288,
    "noteNumber": 74,
    "velocity": 127,
    "endTime": 336
  },
  {
    "startTime": 384,
    "noteNumber": 72,
    "velocity": 127,
    "endTime": 408
  },
  {
    "startTime": 408,
    "noteNumber": 74,
    "velocity": 127,
    "endTime": 432
  },
  {
    "startTime": 432,
    "noteNumber": 75,
    "velocity": 127,
    "endTime": 456
  },
  {
    "startTime": 456,
    "noteNumber": 77,
    "velocity": 127,
    "endTime": 480
  },
  {
    "startTime": 480,
    "noteNumber": 79,
    "velocity": 127,
    "endTime": 504
  },
  {
    "startTime": 528,
    "noteNumber": 72,
    "velocity": 127,
    "endTime": 552
  },
  {
    "startTime": 576,
    "noteNumber": 72,
    "velocity": 127,
    "endTime": 588
  },
  {
    "startTime": 588,
    "noteNumber": 74,
    "velocity": 127,
    "endTime": 600
  },
  {
    "startTime": 600,
    "noteNumber": 72,
    "velocity": 127,
    "endTime": 624
  },
  {
    "startTime": 624,
    "noteNumber": 74,
    "velocity": 127,
    "endTime": 648
  },
  {
    "startTime": 648,
    "noteNumber": 75,
    "velocity": 127,
    "endTime": 672
  },
  {
    "startTime": 672,
    "noteNumber": 74,
    "velocity": 127,
    "endTime": 720
  },
  {
    "startTime": 768,
    "noteNumber": 80,
    "velocity": 127,
    "endTime": 792
  },
  {
    "startTime": 792,
    "noteNumber": 79,
    "velocity": 127,
    "endTime": 816
  },
  {
    "startTime": 816,
    "noteNumber": 77,
    "velocity": 127,
    "endTime": 840
  },
  {
    "startTime": 840,
    "noteNumber": 75,
    "velocity": 127,
    "endTime": 864
  },
  {
    "startTime": 864,
    "noteNumber": 74,
    "velocity": 127,
    "endTime": 912
  },
  {
    "startTime": 960,
    "noteNumber": 79,
    "velocity": 127,
    "endTime": 984
  },
  {
    "startTime": 984,
    "noteNumber": 77,
    "velocity": 127,
    "endTime": 1008
  },
  {
    "startTime": 1008,
    "noteNumber": 75,
    "velocity": 127,
    "endTime": 1032
  },
  {
    "startTime": 1032,
    "noteNumber": 74,
    "velocity": 127,
    "endTime": 1056
  },
  {
    "startTime": 1056,
    "noteNumber": 72,
    "velocity": 127,
    "endTime": 1104
  },
  {
    "startTime": 1152,
    "noteNumber": 77,
    "velocity": 127,
    "endTime": 1176
  },
  {
    "startTime": 1176,
    "noteNumber": 75,
    "velocity": 127,
    "endTime": 1200
  },
  {
    "startTime": 1200,
    "noteNumber": 74,
    "velocity": 127,
    "endTime": 1224
  },
  {
    "startTime": 1224,
    "noteNumber": 72,
    "velocity": 127,
    "endTime": 1248
  },
  {
    "startTime": 1248,
    "noteNumber": 74,
    "velocity": 127,
    "endTime": 1260
  },
  {
    "startTime": 1260,
    "noteNumber": 75,
    "velocity": 127,
    "endTime": 1272
  },
  {
    "startTime": 1272,
    "noteNumber": 74,
    "velocity": 127,
    "endTime": 1284
  },
  {
    "startTime": 1284,
    "noteNumber": 75,
    "velocity": 127,
    "endTime": 1296
  },
  {
    "startTime": 1296,
    "noteNumber": 74,
    "velocity": 127,
    "endTime": 1320
  },
  {
    "startTime": 1320,
    "noteNumber": 77,
    "velocity": 127,
    "endTime": 1344
  },
  {
    "startTime": 1344,
    "noteNumber": 79,
    "velocity": 127,
    "endTime": 1440
  },
  {
    "startTime": 1536,
    "noteNumber": 72,
    "velocity": 127,
    "endTime": 1560
  },
  {
    "startTime": 1560,
    "noteNumber": 74,
    "velocity": 127,
    "endTime": 1584
  },
  {
    "startTime": 1584,
    "noteNumber": 75,
    "velocity": 127,
    "endTime": 1608
  },
  {
    "startTime": 1608,
    "noteNumber": 77,
    "velocity": 127,
    "endTime": 1632
  },
  {
    "startTime": 1632,
    "noteNumber": 79,
    "velocity": 127,
    "endTime": 1656
  },
  {
    "startTime": 1680,
    "noteNumber": 72,
    "velocity": 127,
    "endTime": 1704
  },
  {
    "startTime": 1728,
    "noteNumber": 72,
    "velocity": 127,
    "endTime": 1740
  },
  {
    "startTime": 1740,
    "noteNumber": 74,
    "velocity": 127,
    "endTime": 1752
  },
  {
    "startTime": 1752,
    "noteNumber": 72,
    "velocity": 127,
    "endTime": 1776
  },
  {
    "startTime": 1776,
    "noteNumber": 74,
    "velocity": 127,
    "endTime": 1800
  },
  {
    "startTime": 1800,
    "noteNumber": 75,
    "velocity": 127,
    "endTime": 1824
  },
  {
    "startTime": 1824,
    "noteNumber": 74,
    "velocity": 127,
    "endTime": 1872
  },
  {
    "startTime": 1920,
    "noteNumber": 72,
    "velocity": 127,
    "endTime": 1944
  },
  {
    "startTime": 1944,
    "noteNumber": 74,
    "velocity": 127,
    "endTime": 1968
  },
  {
    "startTime": 1968,
    "noteNumber": 75,
    "velocity": 127,
    "endTime": 1992
  },
  {
    "startTime": 1992,
    "noteNumber": 77,
    "velocity": 127,
    "endTime": 2016
  },
  {
    "startTime": 2016,
    "noteNumber": 79,
    "velocity": 127,
    "endTime": 2040
  },
  {
    "startTime": 2064,
    "noteNumber": 72,
    "velocity": 127,
    "endTime": 2088
  },
  {
    "startTime": 2112,
    "noteNumber": 72,
    "velocity": 127,
    "endTime": 2124
  },
  {
    "startTime": 2124,
    "noteNumber": 74,
    "velocity": 127,
    "endTime": 2136
  },
  {
    "startTime": 2136,
    "noteNumber": 72,
    "velocity": 127,
    "endTime": 2160
  },
  {
    "startTime": 2160,
    "noteNumber": 74,
    "velocity": 127,
    "endTime": 2184
  },
  {
    "startTime": 2184,
    "noteNumber": 75,
    "velocity": 127,
    "endTime": 2208
  },
  {
    "startTime": 2208,
    "noteNumber": 74,
    "velocity": 127,
    "endTime": 2256
  },
  {
    "startTime": 2304,
    "noteNumber": 80,
    "velocity": 127,
    "endTime": 2328
  },
  {
    "startTime": 2328,
    "noteNumber": 79,
    "velocity": 127,
    "endTime": 2352
  },
  {
    "startTime": 2352,
    "noteNumber": 77,
    "velocity": 127,
    "endTime": 2376
  },
  {
    "startTime": 2376,
    "noteNumber": 75,
    "velocity": 127,
    "endTime": 2400
  },
  {
    "startTime": 2400,
    "noteNumber": 74,
    "velocity": 127,
    "endTime": 2448
  },
  {
    "startTime": 2496,
    "noteNumber": 79,
    "velocity": 127,
    "endTime": 2520
  },
  {
    "startTime": 2520,
    "noteNumber": 77,
    "velocity": 127,
    "endTime": 2544
  },
  {
    "startTime": 2544,
    "noteNumber": 75,
    "velocity": 127,
    "endTime": 2568
  },
  {
    "startTime": 2568,
    "noteNumber": 74,
    "velocity": 127,
    "endTime": 2592
  },
  {
    "startTime": 2592,
    "noteNumber": 72,
    "velocity": 127,
    "endTime": 2640
  },
  {
    "startTime": 2688,
    "noteNumber": 77,
    "velocity": 127,
    "endTime": 2712
  },
  {
    "startTime": 2712,
    "noteNumber": 75,
    "velocity": 127,
    "endTime": 2736
  },
  {
    "startTime": 2736,
    "noteNumber": 74,
    "velocity": 127,
    "endTime": 2760
  },
  {
    "startTime": 2760,
    "noteNumber": 72,
    "velocity": 127,
    "endTime": 2784
  },
  {
    "startTime": 2784,
    "noteNumber": 74,
    "velocity": 127,
    "endTime": 2796
  },
  {
    "startTime": 2796,
    "noteNumber": 75,
    "velocity": 127,
    "endTime": 2808
  },
  {
    "startTime": 2808,
    "noteNumber": 74,
    "velocity": 127,
    "endTime": 2820
  },
  {
    "startTime": 2820,
    "noteNumber": 75,
    "velocity": 127,
    "endTime": 2832
  },
  {
    "startTime": 2832,
    "noteNumber": 74,
    "velocity": 127,
    "endTime": 2856
  },
  {
    "startTime": 2856,
    "noteNumber": 71,
    "velocity": 127,
    "endTime": 2880
  },
  {
    "startTime": 2880,
    "noteNumber": 72,
    "velocity": 127,
    "endTime": 2892
  },
  {
    "startTime": 2892,
    "noteNumber": 65,
    "velocity": 127,
    "endTime": 2904
  },
  {
    "startTime": 2904,
    "noteNumber": 72,
    "velocity": 127,
    "endTime": 2916
  },
  {
    "startTime": 2916,
    "noteNumber": 65,
    "velocity": 127,
    "endTime": 2928
  },
  {
    "startTime": 2928,
    "noteNumber": 72,
    "velocity": 127,
    "endTime": 2940
  },
  {
    "startTime": 2940,
    "noteNumber": 65,
    "velocity": 127,
    "endTime": 2952
  },
  {
    "startTime": 2952,
    "noteNumber": 72,
    "velocity": 127,
    "endTime": 2964
  },
  {
    "startTime": 2964,
    "noteNumber": 65,
    "velocity": 127,
    "endTime": 2976
  },
  {
    "startTime": 2976,
    "noteNumber": 72,
    "velocity": 127,
    "endTime": 2988
  },
  {
    "startTime": 2988,
    "noteNumber": 64,
    "velocity": 127,
    "endTime": 3000
  },
  {
    "startTime": 3000,
    "noteNumber": 72,
    "velocity": 127,
    "endTime": 3012
  },
  {
    "startTime": 3012,
    "noteNumber": 64,
    "velocity": 127,
    "endTime": 3024
  },
  {
    "startTime": 3024,
    "noteNumber": 72,
    "velocity": 127,
    "endTime": 3036
  },
  {
    "startTime": 3036,
    "noteNumber": 64,
    "velocity": 127,
    "endTime": 3048
  },
  {
    "startTime": 3048,
    "noteNumber": 72,
    "velocity": 127,
    "endTime": 3060
  },
  {
    "startTime": 3060,
    "noteNumber": 64,
    "velocity": 127,
    "endTime": 3072
  }
]

midiTracks[1] = [
  {
    "startTime": 0,
    "noteNumber": 60,
    "velocity": 127,
    "endTime": 24
  },
  {
    "startTime": 48,
    "noteNumber": 60,
    "velocity": 127,
    "endTime": 120
  },
  {
    "startTime": 144,
    "noteNumber": 66,
    "velocity": 127,
    "endTime": 168
  },
  {
    "startTime": 192,
    "noteNumber": 67,
    "velocity": 127,
    "endTime": 240
  },
  {
    "startTime": 240,
    "noteNumber": 55,
    "velocity": 127,
    "endTime": 288
  },
  {
    "startTime": 288,
    "noteNumber": 65,
    "velocity": 127,
    "endTime": 300
  },
  {
    "startTime": 300,
    "noteNumber": 67,
    "velocity": 127,
    "endTime": 312
  },
  {
    "startTime": 312,
    "noteNumber": 65,
    "velocity": 127,
    "endTime": 336
  },
  {
    "startTime": 336,
    "noteNumber": 63,
    "velocity": 127,
    "endTime": 360
  },
  {
    "startTime": 360,
    "noteNumber": 62,
    "velocity": 127,
    "endTime": 384
  },
  {
    "startTime": 384,
    "noteNumber": 60,
    "velocity": 127,
    "endTime": 408
  },
  {
    "startTime": 432,
    "noteNumber": 60,
    "velocity": 127,
    "endTime": 504
  },
  {
    "startTime": 528,
    "noteNumber": 66,
    "velocity": 127,
    "endTime": 552
  },
  {
    "startTime": 576,
    "noteNumber": 67,
    "velocity": 127,
    "endTime": 624
  },
  {
    "startTime": 624,
    "noteNumber": 55,
    "velocity": 127,
    "endTime": 672
  },
  {
    "startTime": 672,
    "noteNumber": 65,
    "velocity": 127,
    "endTime": 684
  },
  {
    "startTime": 684,
    "noteNumber": 67,
    "velocity": 127,
    "endTime": 696
  },
  {
    "startTime": 696,
    "noteNumber": 65,
    "velocity": 127,
    "endTime": 720
  },
  {
    "startTime": 720,
    "noteNumber": 63,
    "velocity": 127,
    "endTime": 744
  },
  {
    "startTime": 744,
    "noteNumber": 62,
    "velocity": 127,
    "endTime": 768
  },
  {
    "startTime": 768,
    "noteNumber": 65,
    "velocity": 127,
    "endTime": 792
  },
  {
    "startTime": 792,
    "noteNumber": 60,
    "velocity": 127,
    "endTime": 816
  },
  {
    "startTime": 816,
    "noteNumber": 65,
    "velocity": 127,
    "endTime": 840
  },
  {
    "startTime": 840,
    "noteNumber": 68,
    "velocity": 127,
    "endTime": 864
  },
  {
    "startTime": 864,
    "noteNumber": 66,
    "velocity": 127,
    "endTime": 876
  },
  {
    "startTime": 876,
    "noteNumber": 67,
    "velocity": 127,
    "endTime": 912
  },
  {
    "startTime": 912,
    "noteNumber": 62,
    "velocity": 127,
    "endTime": 960
  },
  {
    "startTime": 960,
    "noteNumber": 63,
    "velocity": 127,
    "endTime": 984
  },
  {
    "startTime": 984,
    "noteNumber": 58,
    "velocity": 127,
    "endTime": 1008
  },
  {
    "startTime": 1008,
    "noteNumber": 63,
    "velocity": 127,
    "endTime": 1032
  },
  {
    "startTime": 1032,
    "noteNumber": 70,
    "velocity": 127,
    "endTime": 1056
  },
  {
    "startTime": 1056,
    "noteNumber": 67,
    "velocity": 127,
    "endTime": 1068
  },
  {
    "startTime": 1068,
    "noteNumber": 68,
    "velocity": 127,
    "endTime": 1104
  },
  {
    "startTime": 1104,
    "noteNumber": 63,
    "velocity": 127,
    "endTime": 1152
  },
  {
    "startTime": 1152,
    "noteNumber": 62,
    "velocity": 127,
    "endTime": 1176
  },
  {
    "startTime": 1200,
    "noteNumber": 62,
    "velocity": 127,
    "endTime": 1296
  },
  {
    "startTime": 1296,
    "noteNumber": 66,
    "velocity": 127,
    "endTime": 1320
  },
  {
    "startTime": 1344,
    "noteNumber": 67,
    "velocity": 127,
    "endTime": 1392
  },
  {
    "startTime": 1392,
    "noteNumber": 55,
    "velocity": 127,
    "endTime": 1440
  },
  {
    "startTime": 1440,
    "noteNumber": 65,
    "velocity": 127,
    "endTime": 1452
  },
  {
    "startTime": 1452,
    "noteNumber": 67,
    "velocity": 127,
    "endTime": 1464
  },
  {
    "startTime": 1464,
    "noteNumber": 65,
    "velocity": 127,
    "endTime": 1488
  },
  {
    "startTime": 1488,
    "noteNumber": 63,
    "velocity": 127,
    "endTime": 1512
  },
  {
    "startTime": 1512,
    "noteNumber": 62,
    "velocity": 127,
    "endTime": 1536
  },
  {
    "startTime": 1536,
    "noteNumber": 60,
    "velocity": 127,
    "endTime": 1560
  },
  {
    "startTime": 1584,
    "noteNumber": 60,
    "velocity": 127,
    "endTime": 1656
  },
  {
    "startTime": 1680,
    "noteNumber": 66,
    "velocity": 127,
    "endTime": 1704
  },
  {
    "startTime": 1728,
    "noteNumber": 67,
    "velocity": 127,
    "endTime": 1776
  },
  {
    "startTime": 1776,
    "noteNumber": 55,
    "velocity": 127,
    "endTime": 1824
  },
  {
    "startTime": 1824,
    "noteNumber": 65,
    "velocity": 127,
    "endTime": 1836
  },
  {
    "startTime": 1836,
    "noteNumber": 67,
    "velocity": 127,
    "endTime": 1848
  },
  {
    "startTime": 1848,
    "noteNumber": 65,
    "velocity": 127,
    "endTime": 1872
  },
  {
    "startTime": 1872,
    "noteNumber": 63,
    "velocity": 127,
    "endTime": 1896
  },
  {
    "startTime": 1896,
    "noteNumber": 62,
    "velocity": 127,
    "endTime": 1920
  },
  {
    "startTime": 1920,
    "noteNumber": 60,
    "velocity": 127,
    "endTime": 1944
  },
  {
    "startTime": 1968,
    "noteNumber": 60,
    "velocity": 127,
    "endTime": 2040
  },
  {
    "startTime": 2064,
    "noteNumber": 66,
    "velocity": 127,
    "endTime": 2088
  },
  {
    "startTime": 2112,
    "noteNumber": 67,
    "velocity": 127,
    "endTime": 2160
  },
  {
    "startTime": 2160,
    "noteNumber": 55,
    "velocity": 127,
    "endTime": 2208
  },
  {
    "startTime": 2208,
    "noteNumber": 65,
    "velocity": 127,
    "endTime": 2220
  },
  {
    "startTime": 2220,
    "noteNumber": 67,
    "velocity": 127,
    "endTime": 2232
  },
  {
    "startTime": 2232,
    "noteNumber": 65,
    "velocity": 127,
    "endTime": 2256
  },
  {
    "startTime": 2256,
    "noteNumber": 63,
    "velocity": 127,
    "endTime": 2280
  },
  {
    "startTime": 2280,
    "noteNumber": 62,
    "velocity": 127,
    "endTime": 2304
  },
  {
    "startTime": 2304,
    "noteNumber": 65,
    "velocity": 127,
    "endTime": 2328
  },
  {
    "startTime": 2328,
    "noteNumber": 60,
    "velocity": 127,
    "endTime": 2352
  },
  {
    "startTime": 2352,
    "noteNumber": 65,
    "velocity": 127,
    "endTime": 2376
  },
  {
    "startTime": 2376,
    "noteNumber": 68,
    "velocity": 127,
    "endTime": 2400
  },
  {
    "startTime": 2400,
    "noteNumber": 66,
    "velocity": 127,
    "endTime": 2412
  },
  {
    "startTime": 2412,
    "noteNumber": 67,
    "velocity": 127,
    "endTime": 2448
  },
  {
    "startTime": 2448,
    "noteNumber": 62,
    "velocity": 127,
    "endTime": 2496
  },
  {
    "startTime": 2496,
    "noteNumber": 63,
    "velocity": 127,
    "endTime": 2520
  },
  {
    "startTime": 2520,
    "noteNumber": 58,
    "velocity": 127,
    "endTime": 2544
  },
  {
    "startTime": 2544,
    "noteNumber": 63,
    "velocity": 127,
    "endTime": 2568
  },
  {
    "startTime": 2568,
    "noteNumber": 70,
    "velocity": 127,
    "endTime": 2592
  },
  {
    "startTime": 2592,
    "noteNumber": 67,
    "velocity": 127,
    "endTime": 2604
  },
  {
    "startTime": 2604,
    "noteNumber": 68,
    "velocity": 127,
    "endTime": 2640
  },
  {
    "startTime": 2640,
    "noteNumber": 63,
    "velocity": 127,
    "endTime": 2688
  },
  {
    "startTime": 2688,
    "noteNumber": 62,
    "velocity": 127,
    "endTime": 2712
  },
  {
    "startTime": 2712,
    "noteNumber": 63,
    "velocity": 127,
    "endTime": 2736
  },
  {
    "startTime": 2736,
    "noteNumber": 65,
    "velocity": 127,
    "endTime": 2760
  },
  {
    "startTime": 2760,
    "noteNumber": 66,
    "velocity": 127,
    "endTime": 2784
  },
  {
    "startTime": 2784,
    "noteNumber": 67,
    "velocity": 127,
    "endTime": 2856
  },
  {
    "startTime": 2856,
    "noteNumber": 59,
    "velocity": 127,
    "endTime": 2880
  },
  {
    "startTime": 2880,
    "noteNumber": 60,
    "velocity": 127,
    "endTime": 3072
  }
]